<?xml version="1.0" encoding="utf-8"?>
<!-- Generator: Adobe Illustrator 25.3.1, SVG Export Plug-In . SVG Version: 6.00 Build 0)  -->
<svg version="1.0" xmlns="http://www.w3.org/2000/svg" xmlns:xlink="http://www.w3.org/1999/xlink" x="0px" y="0px"
	 viewBox="0 0 600 600" style="enable-background:new 0 0 600 600;" xml:space="preserve">
<style type="text/css">
	.st0{display:none;}
	.st1{fill:#EB0985;}
	.st2{fill:#F2D680;}
	.st3{fill:#8C205C;}
	.st4{fill:#D99791;}
</style>
<g id="Capa_2" class="st0">
</g>
<g id="Capa_1">
	<path class="st1" d="M378.8,192.22c10.64-0.82,21.03-3.32,31.56-4.84c1.48-0.21,2.96-0.54,4.44-0.66c5.26-0.44,7.45,1.42,7.53,6.76
		c0.13,8.32,0.04,16.65,0.04,24.98c0,21.32-0.12,42.63,0.1,63.95c0.04,4.04-1.27,5.71-5.12,6.09c-2.3,0.23-4.64,0.74-6.79,1.57
		c-4.67,1.79-6.07,5.02-3.63,9.36c1.59,2.82-0.73,2.59-1.83,3.39c-5.38,3.88-5.32,8.51,0.29,11.4c-4.3,1.84-7.93,4.41-6.83,9.66
		c1.11,5.34,5.85,3.7,9.71,4.1c-0.68,1.29-1.43,2.39-1.87,3.6c-1.43,3.95,0.75,7.04,4.9,7.07c0.66,0,1.33-0.07,1.99-0.16
		c9.08-1.27,9.08-1.27,9.07,8.06c0,3.83,0.08,7.66-0.06,11.49c-0.15,3.97-2.12,6.53-6.2,7.28c-39.29,7.17-78.55,14.54-117.91,21.29
		c-5.09,0.87-10.75-1.41-16.12-2.38c-34.06-6.17-68.12-12.39-102.18-18.59c-6.59-1.2-7.88-2.68-7.93-9.2c-0.03-5,0.16-10-0.07-14.99
		c-0.17-3.61,1.21-4.34,4.44-3.46c3.04,0.83,6.4,1.81,8.65-1.48c2.1-3.08,0-5.64-2.37-8.7c4.54-0.14,9.68,1.42,10.6-4.27
		c0.8-4.95-2.77-7.44-6.98-9.31c2.6-0.96,4.4-2.51,4.22-5.33c-0.28-4.33-3.35-6.22-7.04-7.44c4.27-5.81,2.78-10.05-4.11-11.95
		c-7.35-2.03-7.35-2.03-7.35-9.69c0-27.98-0.01-55.96,0-83.94c0-8.74,1.77-10.14,10.53-8.75c10.18,1.61,20.26,3.93,30.56,4.73
		c2.11,1.14,4.4,1.14,6.7,1.07c3.35,1.31,6.84,1.8,10.41,1.86c2.62,1.13,5.42,1.35,8.21,1.58c14.06,2.33,28.13,4.67,42.19,7
		c9.27,2.22,18.56,3.9,28,0.91c14.14-2.16,28.31-4.14,42.26-7.37c2.83,0.14,5.58-0.21,8.23-1.24c2.63-0.41,5.27-0.82,7.9-1.23
		C370.97,193.94,374.98,193.58,378.8,192.22z M289.51,277.17c0.06,0,0.12,0,0.17,0c0-6.5-0.14-13,0.06-19.49
		c0.1-3.19-0.71-4.67-4.18-5.23c-16.27-2.61-32.49-5.49-48.71-8.41c-2.99-0.54-3.82,0.4-3.8,3.28c0.09,13.49,0.1,26.99-0.01,40.48
		c-0.02,2.68,0.85,3.74,3.56,4.19c16.25,2.72,32.48,5.58,48.69,8.51c3.38,0.61,4.38-0.53,4.28-3.85
		C289.37,290.17,289.51,283.67,289.51,277.17z M415.61,209.32c0-1,0-2,0-2.99c0-6.89,0.01-6.86-6.69-5.69
		c-30.78,5.38-61.55,10.75-92.34,16.1c-13.45,2.33-13.45,2.3-13.23,15.87c0.1,6.01,0.09,5.99,6.26,4.91
		c32.08-5.59,64.16-11.17,96.25-16.74C415.6,219.08,415.6,219.11,415.61,209.32z M289.39,228.88c0-0.83,0-1.66,0-2.5
		c-0.06-8.56,1.22-7.03-7.18-8.53c-26.04-4.66-52.08-9.32-78.17-13.71c-7.71-1.3-7-2.96-7.09,6.08c-0.02,2.5,0.23,5.02-0.06,7.49
		c-0.44,3.75,0.99,5.15,4.73,5.77c26.09,4.33,52.14,8.92,78.22,13.35C289.08,238.39,289.09,238.29,289.39,228.88z M303.69,368.75
		c0,8,0,8.03,6.71,6.86c32.12-5.6,64.25-11.15,96.35-16.87c11-1.96,8.92,0.57,9.37-10.78c0.16-4.03-1.11-4.62-4.88-3.94
		c-33.55,6.01-67.12,11.91-100.73,17.6C305.53,362.45,302.13,363.59,303.69,368.75z M303.7,259c0,2.83,0.07,5.66-0.02,8.49
		c-0.08,2.38,0.56,3.13,3.2,2.66c14.74-2.64,29.51-5.11,44.3-7.49c2.82-0.45,4.03-1.53,3.89-4.51c-0.21-4.65-0.32-9.34,0.02-13.98
		c0.31-4.19-1.23-5.1-5.11-4.37c-11.77,2.21-23.59,4.17-35.39,6.26C303.69,247.98,303.69,247.99,303.7,259z M230.45,351.69
		c0.06,0,0.11,0,0.17,0c0-3.16-0.05-6.32,0.02-9.47c0.04-1.92-0.49-3.12-2.62-3.47c-8.03-1.32-16.04-2.73-24.05-4.16
		c-2.56-0.46-3.62,0.38-3.55,3.11c0.14,5.98,0.19,11.97-0.02,17.95c-0.11,3,1.08,4.03,3.89,4.47c7.55,1.17,15.07,2.53,22.57,4.01
		c2.73,0.54,3.69-0.31,3.62-2.96C230.39,358,230.45,354.85,230.45,351.69z M306.55,284.39c-0.3,0.06,0.19-0.05,0.68-0.14
		c34.7-6.1,69.4-12.19,104.09-18.32c1.95-0.34,4.91,0.13,4.3-3.32c-0.63-3.56-3.42-1.8-5.19-1.5c-24.57,4.17-49.12,8.46-73.67,12.72
		c-10.16,1.76-20.31,3.59-30.48,5.26c-2.32,0.38-3.07,1.48-2.84,3.69C303.6,284.33,304.37,284.78,306.55,284.39z M413.7,276.16
		c-11.44,1.98-21.77,3.75-32.09,5.55c-24.92,4.34-49.84,8.73-74.78,13c-2.35,0.4-3.71,1.09-3.39,3.75c0.43,3.56,2.71,1.5,4.09,1.26
		c34.6-5.99,69.18-12.06,103.77-18.12c0.82-0.14,1.65-0.28,2.44-0.51c1.78-0.51,1.52-1.97,1.4-3.27
		C414.99,276.18,413.87,276.12,413.7,276.16z M208.44,298.38c-1.35-0.16-2.8-0.6-2.94,1.51c-0.1,1.51-0.22,3.11,1.84,3.51
		c0.98,0.19,1.97,0.32,2.96,0.49c24.92,4.35,49.83,8.71,74.76,13c1.63,0.28,4.04,2.27,4.61-1.37c0.51-3.25-1.87-3.32-4.03-3.7
		c-8.86-1.54-17.71-3.12-26.57-4.66C242.2,304.23,225.32,301.31,208.44,298.38z M305.87,350.67c0.5-0.06,0.99-0.09,1.49-0.17
		c25.2-4.33,50.39-8.68,75.6-12.95c2.27-0.39,3.17-1.43,2.94-3.67c-0.32-3.06-2.42-1.57-3.74-1.34
		c-18.65,3.16-37.28,6.41-55.92,9.64c-6.71,1.17-13.4,2.44-20.12,3.52c-2.11,0.34-2.84,1.35-2.65,3.36
		C303.62,350.64,304.52,350.96,305.87,350.67z M287.43,334.39c0.47,0.02,1.99,0.53,2.19-1.53c0.15-1.52,0.22-3.07-1.9-3.41
		c-2.14-0.34-4.26-0.77-6.39-1.14c-23.73-4.17-47.46-8.37-71.21-12.45c-1.52-0.26-3.83-1.53-4.56,1.17
		c-0.61,2.26,0.73,3.2,2.94,3.58C234.55,325.12,260.58,329.69,287.43,334.39z M243.21,341.44c-1.53-0.21-2.57-0.01-2.63,1.95
		c-0.08,2.57,1.58,2.88,3.51,3.22c13.91,2.46,27.81,4.96,41.72,7.46c1.59,0.28,3.37,1.15,3.67-1.64c0.26-2.37-0.86-3.25-3.04-3.57
		c-3.45-0.5-6.88-1.19-10.32-1.78C265.15,345.19,254.18,343.32,243.21,341.44z M306.2,334.36c14.72-2.58,29.45-5.17,44.18-7.72
		c2.03-0.35,2.21-1.69,2.12-3.29c-0.13-2.43-1.95-1.92-3.31-1.71c-5.9,0.93-11.78,1.98-17.67,3c-8.35,1.44-16.69,2.92-25.04,4.33
		c-1.93,0.33-2.96,1.15-2.79,3.28C303.82,333.96,304.5,334.7,306.2,334.36z M394.16,241.85c-7.8,1.34-16.5,2.81-25.19,4.32
		c-2.01,0.35-2,1.92-1.92,3.48c0.07,1.53,0.88,1.97,2.32,1.71c8.84-1.61,17.69-3.19,26.53-4.77c1.71-0.31,1.99-1.49,1.94-2.95
		C397.78,241.68,396.49,241.65,394.16,241.85z M306.11,317.46c8.83-1.54,17.66-3.1,26.49-4.62c2.11-0.36,1.98-1.88,1.94-3.4
		c-0.06-2.05-1.5-1.86-2.84-1.67c-1.64,0.24-3.26,0.6-4.89,0.89c-6.86,1.24-13.71,2.54-20.59,3.66c-2.17,0.35-2.71,1.45-2.5,3.4
		C303.89,317.28,304.75,317.67,306.11,317.46z"/>
	<path class="st2" d="M219.78,192.93c-2.3,0.07-4.59,0.07-6.7-1.07c0.46-40.69,28.23-72.67,65.83-80.42
		c6.89-1.42,11.21-2.98,12.13-10.74c0.61-5.14,4.31-9.23,8.16-12.8c2.48-2.29,4.79-4.7,4.18-8.52c0.12-3.38-1.91-5.88-3.5-8.56
		c-2.56-4.33-2.17-7.97,1.03-10.1c3.52-2.34,7.36-1.35,10.2,2.82c3.72,5.48,5.81,11.54,6.05,18.2c-0.79,6.43-3.99,11.53-8.68,15.83
		c-0.86,0.78-1.7,1.61-2.38,2.54c-5.37,7.28-4.68,9.12,3.93,10.64c38.11,6.71,65.89,37.76,68.43,76.5c0.11,1.66,0.23,3.32,0.34,4.98
		c-3.82,1.36-7.83,1.72-11.81,2.23c0.02-3.48-0.15-6.98,0.11-10.45c0.5-6.62-2.08-11.76-7.48-15.31c-5.52-3.63-11.79-5.23-18.36-5.7
		c-2.14-0.15-2.79,0.34-2.55,2.77c0.76,7.78-2.11,11.75-9.63,13.92c-5.98,1.73-12.11,1.92-18.28,1.68
		c-12.53-0.49-24.61-3.74-36.85-6c-11.99-2.21-24.01-3.53-36.16-1.46C226.08,175.9,220.62,181.71,219.78,192.93z"/>
	<g>
		<path class="st3" d="M379.63,451.14c0-8.82-0.04-17.65,0.02-26.47c0.03-5.25,1.91-7.45,6.02-7.27c4.78,0.21,5.41,3.43,5.4,7.31
			c-0.05,17.15,0.03,34.3-0.05,51.44c-0.02,4.51,1.57,7.83,5.93,9.33c4.8,1.66,9.64-1.69,10.16-7.33c0.43-4.62,0.21-9.31,0.22-13.97
			c0.02-13.32,0.05-26.64-0.02-39.96c-0.02-3.79,0.9-6.69,5.34-6.82c4.59-0.13,6.07,2.69,6.07,6.74
			c0.01,17.48,0.04,34.96-0.02,52.44c-0.01,3.88,1.38,6.76,4.91,8.52c2.88,1.43,5.56,0.77,7.99-0.96c2.73-1.93,3.19-4.84,3.18-7.98
			c-0.04-16.98-0.01-33.96-0.03-50.94c0-2.73,0.04-5.43,2.67-7.1c4.31-2.73,8.78,0.26,8.83,6.05c0.1,11.99,0.03,23.97,0.03,35.96
			c0,5.83,0.18,11.66-0.04,17.48c-0.61,16.24-16.68,24.76-30.46,16.12c-2.14-1.34-3.46-1.42-5.67-0.06
			c-14.18,8.75-30,0.12-30.42-16.57c-0.22-8.65-0.04-17.31-0.04-25.97C379.65,451.14,379.64,451.14,379.63,451.14z"/>
		<path class="st3" d="M311.27,463.18c0-8.12-0.01-15.38,0-22.64c0.01-5.83-0.09-11.66,0.09-17.48c0.11-3.38,1.74-5.71,5.55-5.68
			c3.98,0.03,5.65,2.28,5.74,6.01c0.04,1.33,0.01,2.66,0.01,4c0,20.48-0.01,40.96,0.01,61.44c0,3.41,0.15,6.96-4.13,8.01
			c-4.31,1.07-6.24-1.62-7.85-5.13c-5.48-11.95-11.13-23.83-16.75-35.71c-0.69-1.45-0.98-3.16-2.64-4.32
			c-1.63,1.25-0.93,3.02-0.93,4.49c-0.06,11.32-0.05,22.64-0.03,33.96c0.01,2.84-0.5,5.39-3.47,6.56c-4.02,1.59-7.79-0.93-7.81-5.62
			c-0.12-22.64-0.07-45.29-0.03-67.93c0.01-2.96,1.3-5.16,4.48-5.7c3.51-0.59,5.62,1.11,7.05,4.2
			c5.58,12.09,11.21,24.16,16.89,36.21C308.19,459.44,308.53,461.34,311.27,463.18z"/>
		<path class="st3" d="M151.57,456.84c0-10.49-0.02-20.98,0.01-31.46c0.02-6.65,1.33-7.98,7.79-8.01c4.33-0.02,8.66,0.01,12.99,0
			c9.69-0.04,16.63,4.59,20.62,13.13c3.96,8.47,2.65,16.7-3.54,23.71c-2.27,2.57-2.41,4.22-0.81,7.28
			c3.78,7.24,3.11,15.56,4.68,23.36c0.39,1.95,0.64,3.95,0.77,5.94c0.2,3.27-1.23,5.55-4.57,6.09c-3.49,0.57-5.98-0.92-6.58-4.49
			c-1.07-6.4-1.96-12.83-2.8-19.27c-1.14-8.7-3.72-10.91-12.22-10.98c-3.64-0.03-5.02,1.04-4.9,4.83
			c0.25,7.65,0.09,15.31,0.05,22.97c-0.02,2.96-0.57,5.74-3.87,6.82c-4.3,1.4-7.53-1.26-7.58-6.46
			C151.51,479.15,151.57,468,151.57,456.84z M163.07,439.39c0,2.83,0.02,5.66-0.01,8.49c-0.01,1.66,0.36,3.11,2.32,3.19
			c4.15,0.19,8.34,0.57,12.23-1.49c4.98-2.63,7.17-8.28,5.29-13.65c-2.01-5.76-8.51-8.96-16.79-7.46c-5.98,1.09-1.9,6.28-3.03,9.41
			C162.92,438.35,163.06,438.9,163.07,439.39z"/>
		<path class="st3" d="M120.43,417.37c5.99,0,10.96,3.41,12.07,9.16c4.1,21.24,7.95,42.53,11.86,63.81c0.61,3.3-0.85,5.68-4.01,6.44
			c-3.61,0.87-6.28-0.63-7.08-4.43c-1.07-5.05-2.14-10.11-2.81-15.21c-0.42-3.24-1.98-3.99-4.96-4.06
			c-14.18-0.35-14.18-0.42-16.69,13.35c-0.27,1.47-0.55,2.94-0.86,4.41c-1.05,5.01-3.43,7.06-7.33,5.99
			c-4.15-1.13-4.51-4.23-3.82-7.91c2.41-12.76,4.71-25.53,7.06-38.3c1.45-7.86,2.77-15.74,4.43-23.55
			C109.61,420.84,114.22,417.38,120.43,417.37z M120.43,462.13c7.21,0,7.22,0,5.89-7.21c-1.32-7.18-2.64-14.35-3.99-21.52
			c-0.24-1.26-0.2-2.92-2.09-2.76c-1.52,0.12-1.43,1.6-1.63,2.71c-1.36,7.34-2.71,14.67-4.05,22.01
			C113.32,462.13,113.33,462.13,120.43,462.13z"/>
		<path class="st3" d="M333.56,456.79c0-10.65-0.02-21.31,0.01-31.96c0.01-6.33,1.18-7.45,7.66-7.46
			c7.99-0.02,15.98,0.07,23.97-0.03c3.81-0.05,6.31,1.57,6.34,5.38c0.03,3.72-2.31,5.68-6.15,5.66c-4.99-0.03-10,0.24-14.98-0.08
			c-4.25-0.27-6.16,0.9-5.73,5.49c0.37,3.96,0.3,8,0.01,11.97c-0.3,4.06,1,5.86,5.28,5.48c3.3-0.29,6.65-0.03,9.98-0.06
			c3.79-0.04,6.17,1.64,6.1,5.58c-0.08,3.92-2.56,5.48-6.3,5.44c-3.83-0.04-7.66,0.05-11.49-0.01c-2.53-0.04-3.58,1.06-3.53,3.61
			c0.09,5.49,0.12,10.99-0.01,16.48c-0.07,2.91,1.27,3.77,3.94,3.73c5.49-0.09,10.99,0.03,16.48-0.04c3.78-0.05,6.32,1.64,6.4,5.41
			c0.08,4.1-2.58,5.71-6.59,5.65c-7.99-0.11-15.98-0.01-23.97-0.04c-6.14-0.02-7.38-1.22-7.4-7.25
			C333.54,478.76,333.56,467.78,333.56,456.79z"/>
		<path class="st3" d="M476.08,417.37c10.03,0.02,18.34,7.29,19.13,16.72c0.3,3.56-0.68,6.47-4.59,7.08
			c-3.71,0.58-6.13-1.14-6.57-5.05c-0.48-4.19-2.87-6.66-6.89-7.48c-3.29-0.67-5.91,0.78-7.8,3.36c-2.35,3.21-1.85,6.59-0.03,9.87
			c2.48,4.47,6.36,7.66,10.15,10.91c4.83,4.13,9.54,8.35,12.83,13.87c5.84,9.81,3.41,21.31-5.69,27.32
			c-8.72,5.76-20.5,3.56-26.68-4.97c-2.12-2.93-3.21-6.22-3.35-9.78c-0.13-3.24,1.37-5.56,4.71-6.01c3.4-0.46,6.02,0.82,6.46,4.56
			c0.52,4.35,2.72,7.14,7,7.97c3.47,0.67,6.25-0.85,8.07-3.77c2.34-3.76,1.27-7.4-1.02-10.75c-3.52-5.15-8.52-8.85-13.09-12.98
			c-4.6-4.16-8.86-8.59-11.03-14.59C452.89,430.44,462.08,417.34,476.08,417.37z"/>
		<path class="st3" d="M218.03,461.15c0-9.49-0.1-18.98,0.05-28.47c0.05-3.23-1.01-4.59-4.3-4.35c-2.48,0.18-5,0.12-7.49,0
			c-3.63-0.18-5.49-2.28-5.36-5.83c0.12-3.36,2.08-5.12,5.49-5.13c11.49-0.01,22.97,0,34.46-0.01c3.67,0,5.7,1.95,5.65,5.5
			c-0.04,3.55-2.18,5.42-5.77,5.49c-0.33,0.01-0.67,0-1,0.01c-10.26,0.27-10.26,0.27-10.26,10.78c0,16.65,0.01,33.29-0.01,49.94
			c-0.01,5.62-1.86,8.12-5.94,7.86c-5-0.31-5.55-3.89-5.54-7.84C218.05,479.8,218.03,470.47,218.03,461.15z"/>
	</g>
	<path class="st1" d="M317.16,81.73c-0.24-6.66-2.33-12.72-6.05-18.2c-2.83-4.18-6.68-5.17-10.2-2.82c-3.21,2.13-3.6,5.77-1.03,10.1
		c1.59,2.69,3.62,5.18,3.5,8.56c-3.61,1.99-7.22,3.98-10.85,5.99c-0.93-1.67,0.02-3.03,0.35-4.41c1.39-5.88,1.43-5.87-4.4-5.46
		c-2.28,0.16-4.55,0.34-8.33,0.62c3.07-2.79,5.02-4.68,7.09-6.42c1.94-1.63,1.88-2.82-0.37-4.09c-2.87-1.62-5.66-3.39-8.99-5.4
		c2.9-1.72,5.53-0.88,7.99-1.01c2.82-0.14,3.16-1.23,1.66-3.36c-1.89-2.7-3.78-5.39-5.14-8.9c3,1.22,6.1,2.24,8.97,3.71
		c3.47,1.78,4.72,0.57,5.11-2.92c0.3-2.78,0.93-5.53,1.51-8.82c3.05,2.56,4.04,5.78,5.69,8.52c1.44,2.39,2.52,2.8,4.14,0.21
		c1.74-2.77,3.67-5.42,6.34-9.33c0.33,4.33,0.62,7.25,0.75,10.18c0.12,2.85,1.31,3.4,3.82,2.27c2.51-1.13,5.13-2.01,8.36-2.2
		c-1.33,2.22-2.55,4.5-4.02,6.63c-1.77,2.57-1.02,3.71,1.83,4.46c2.18,0.57,4.62,0.72,6.36,2.58c-2.56,2-7.79,1.92-7.88,4.36
		c-0.12,3.02,4.79,3.71,7.34,5.65c0.52,0.39,1.01,0.81,1.5,1.19c-0.19,0.42-0.27,0.89-0.45,0.93c-2.9,0.66-6.6,0.41-8.5,2.13
		c-1.89,1.72,1.62,5,0.89,8.18C321.65,83.63,319.41,82.68,317.16,81.73z"/>
	<g>
		<path class="st4" d="M292.09,550.13c3-1.56,3.86-3.95,5-6.13c1.36-2.58,3.51-2.95,5.91-1.75c2.4,1.2,1.87,3.18,1.05,5.16
			c-2.56,6.23-6.89,10.68-13.46,12.36c-7.11,1.82-14.37,3.49-21.26-0.85c-1.62-1.02-2.78-0.2-4.15,0.37
			c-4.03,1.69-8.07,1.81-12.03-0.26c-0.29-0.15-0.65-0.55-0.85-0.48c-5.76,2.04-11.76-0.32-17.39,0.76
			c-4.76,0.92-9.09,2.01-13.31-0.97c-1.5-1.06-2.63-0.76-4.1-0.09c-6.56,3-13.17,3.45-19.61-0.3c-1.56-0.91-2.68-0.66-4.07,0.26
			c-4.39,2.89-9.08,3.26-13.68,0.69c-1.98-1.11-3.33-0.35-5.07,0.29c-6.05,2.23-11.69,2.12-16.4-3.18
			c-2.17-2.44-8.24-2.34-10.69,0.16c-5.03,5.12-10.77,5.57-16.87,2.57c-1.97-0.97-3.28-0.59-5.04,0.21
			c-4.63,2.11-9.47,2.76-13.61-0.83c-4.2-3.63-3.29-8.37-1.71-12.95c2.4-6.92,4.92-13.8,7.33-20.72c0.77-2.23,1.63-4.85-1.05-6.22
			c-2.73-1.41-4.83,0.58-6.31,2.6c-1.15,1.57-1.81,3.54-2.49,5.41c-3.53,9.7-7.01,19.42-10.48,29.14c-1.01,2.84-2.36,5.24-5.91,5.04
			c-3.53-0.2-5.59-2.11-4.39-5.55c4.89-13.99,10.05-27.88,15.12-41.8c0.75-2.05,2.51-2.96,4.38-2.41c3.63,1.08,7.12,0.11,10.69-0.02
			c8.85-0.31,13.36,5.62,10.62,14.02c-2.53,7.75-5.44,15.38-8.14,23.08c-0.58,1.67-1.77,3.83,0.41,4.89
			c2.52,1.22,4.2-0.91,5.01-2.86c2.12-5.06,3.9-10.27,5.77-15.43c1.75-4.82,5.21-7.78,10.15-8.61c4.73-0.8,9.45-0.43,12.77,3.74
			c3.52,4.41,1.25,8.81-0.3,13.22c-0.49,1.4-3.01,2.98-1.05,4.2c1.76,1.09,3.97-0.56,4.95-2.32c1.53-2.75,2.61-5.74,3.81-8.66
			c0.54-1.32,0.09-2.14-1.4-2.53c-1.7-0.44-2.37-1.76-2.09-3.46c0.26-1.59,1.24-3.24,2.77-3.13c4.47,0.34,4.97-2.94,6.03-5.87
			c0.9-2.51,1.74-5.04,2.81-7.48c1.21-2.77,3.61-3.5,6.23-2.5c2.73,1.05,2.87,3.36,1.98,5.85c-0.79,2.19-1.49,4.42-2.32,6.59
			c-0.6,1.59-0.96,2.99,1.45,3.12c2.31,0.12,3.35,1.39,3.05,3.6c-0.29,2.08-1.76,3.54-3.75,3.29c-4.32-0.54-5.33,2.18-6.29,5.39
			c-1,3.34-2.24,6.62-3.4,9.92c-0.47,1.34-0.61,2.59,0.56,3.66c1.3,1.2,2.68,1,4.17,0.36c2.8-1.21,4.48-3.39,5.48-6.16
			c1.97-5.48,3.89-10.99,5.83-16.48c0.75-2.13,1.86-3.95,4.28-4.44c3.69-0.76,5.86,2.16,4.52,6.52c-1.71,5.56-3.78,11.02-5.67,16.53
			c-0.47,1.37-1.51,2.96,0.2,4.05c1.8,1.14,3.09-0.33,4.32-1.42c1.45-1.28,1.89-3.07,2.46-4.82c1.37-4.28,2.6-8.62,4.27-12.78
			c2.37-5.92,7.32-8.73,13.44-8.18c3.76,0.34,6.06,2.52,7.43,5.81c1.39,3.35,0.82,6.57-1.22,9.47c-1.3,1.85-3.22,2.34-5.31,1.53
			c-2.23-0.86-2.8-2.63-2.34-4.87c0.25-1.2,1.2-2.83-0.72-3.31c-1.66-0.42-2.17,1.22-2.6,2.44c-1.05,2.98-2.1,5.97-2.96,9.01
			c-1.37,4.88,1.53,8.31,6.53,7.56c4.95-0.74,8.67-3.35,10.46-8.2c1.79-4.84,3.48-9.72,5.16-14.6c1.16-3.38,3.17-5.92,6.97-4.5
			c3.58,1.34,2.6,4.55,1.68,7.29c-1.63,4.9-3.39,9.75-5.03,14.64c-0.55,1.65-2.02,3.84,0.16,4.88c2.34,1.12,4.18-0.84,5.03-2.85
			c1.95-4.59,3.61-9.31,5.3-14c3.5-9.69,6.29-11.4,16.44-9.56c1.48,0.27,2.55-0.31,3.82-0.55c5.1-0.97,7.35,1.47,5.77,6.39
			c-1.78,5.54-3.76,11.03-5.63,16.55c-0.46,1.37-1.53,3.22,0.06,4.06c1.9,1,3.92-0.52,4.46-2.15c2.62-7.87,10.27-12.57,12.67-20.55
			c0.63-2.1,2.13-3.73,4.23-4.71c2.21-1.03,4.24-0.83,5.99,0.86c1.75,1.7,2.48,4.11,0.87,5.84c-2.67,2.88-1.21,5.12,0.26,7.56
			C289.95,542.77,291.5,546.06,292.09,550.13z M137.65,552.73c1.5-0.94,4.4-1.01,2.12-4.26c-1.96-2.8-0.44-4.99,1.73-6.79
			c0.86-0.71,2.07-0.99,3.07-1.55c2.01-1.13,2.31-3.13,2.28-5.14c-0.02-1.32-1.02-2.16-2.29-2.19c-2.09-0.04-3.35,1.33-4.09,3.1
			c-1.78,4.24-3.49,8.51-5.19,12.78C134.45,550.78,135.03,552.2,137.65,552.73z M253.35,537.64c-0.16-1.49,0.07-3.05-1.53-3.54
			c-1.59-0.48-2.52,0.79-2.98,2c-1.4,3.7-2.69,7.46-3.87,11.23c-0.38,1.2-0.72,2.8,0.96,3.39c1.48,0.53,2.56-0.54,3.26-1.67
			C251.41,545.51,252.4,541.49,253.35,537.64z M275.12,552.94c2.46,2.18,4.47,1.55,5.87-0.41c1.71-2.38,1.5-4.91-0.8-7.9
			C280.87,549.33,278.4,551.4,275.12,552.94z"/>
		<path class="st4" d="M387.65,537.16c0.13-1.01,1.07-2.71-0.65-3.21c-1.92-0.56-2.37,1.46-2.88,2.77
			c-1.15,2.95-2.27,5.92-3.12,8.96c-1.34,4.81,1.8,8.33,6.78,7.51c4.7-0.77,8.4-3.17,10.27-7.76c1.57-3.85,2.96-7.78,4.57-11.61
			c3.11-7.4,12.1-10.67,19.26-7.1c5.5,2.75,6.56,7.59,3.61,15.07c-0.63,1.61-3.43,3.91-1.06,4.98c2.3,1.04,4.54-1.41,5.45-4
			c2.71-7.69,5.36-15.4,8.04-23.1c0.6-1.73,1.21-3.46,1.85-5.17c1.16-3.12,3.46-4.66,6.65-3.65c3.51,1.12,2.89,3.99,1.98,6.64
			c-3.33,9.77-6.8,19.49-10,29.31c-0.62,1.89-3.29,4.72-0.14,5.98c2.45,0.98,4.57-1.82,5.57-4.06c2.04-4.54,3.61-9.3,5.44-13.94
			c2.91-7.37,9.62-10.82,17.29-8.96c5.69,1.38,8.64,6.01,7.27,11.68c-0.46,1.93-1.36,3.75-2.01,5.64c-0.4,1.17-2.14,2.46-0.83,3.5
			c1.53,1.22,3.43-0.05,4.25-1.32c2.9-4.51,6.54-8.77,4.94-14.94c-0.86-3.33,0.2-6.54,3.89-7.58c3.32-0.93,6.06,0.38,6.82,3.99
			c0.47,2.27,2.12,2.72,3.75,3.51c6.56,3.17,7.64,5.83,5.24,12.79c-0.76,2.2-1.58,4.38-2.34,6.59c-0.32,0.93-0.81,2.06,0.2,2.74
			c1.27,0.85,2.16-0.26,2.95-1.06c1.89-1.94,3.15-4.29,4.15-6.77c1.28-3.16,3.75-3.85,6.49-2.59c2.69,1.24,1.65,3.59,0.76,5.63
			c-2.1,4.82-4.8,9.23-9.7,11.64c-4,1.97-8.14,2.03-11.73-0.94c-3.43-2.84-3.45-6.58-2.03-10.49c0.74-2.03,1.49-4.06,2.14-6.13
			c0.43-1.38,0.3-2.78-1.25-3.35c-1.89-0.7-2.29,0.95-2.63,2.15c-1.22,4.26-2.81,8.57-6.83,10.66c-6.99,3.63-14.51,7.14-21.87,8.68
			c-7.05,1.47-15.04-1.48-22.73,0.47c-2.23,0.56-4.4-1.18-6.07-2.94c-3.73-3.96-7.09-4.04-11.18-0.29
			c-4.4,4.03-11.11,4.99-16.17,1.58c-2.55-1.72-4.25-1.36-6.69-0.2c-5.65,2.68-11.57,3.1-17.39,0.5c-5.7-2.55-8.05-7.5-6.38-13.53
			c1.15-4.16,2.52-8.3,4.22-12.26c2.42-5.64,7.31-8.23,13.28-7.56c3.72,0.42,6.08,2.61,7.35,5.94c1.28,3.34,0.75,6.6-1.39,9.46
			c-1.35,1.81-3.34,2.25-5.37,1.36C387.56,541.4,386.88,539.63,387.65,537.16z M406.59,548.23c-0.31,2.43-0.38,3.76,0.97,4.62
			c0.95,0.61,1.9,0.42,2.79-0.17c1.15-0.77,2.33-1.78,1.59-3.23c-2.52-4.91-0.81-7.7,4.06-9.58c1.78-0.69,2-2.94,1.94-4.8
			c-0.04-1.31-0.93-2.16-2.23-2.26c-1.9-0.14-3.19,0.98-3.88,2.59C409.88,539.96,408.07,544.59,406.59,548.23z M464.96,536.16
			c0.13-1.73-0.37-2.78-1.6-3.19c-1.87-0.63-3.32,0.33-4.14,1.87c-2.5,4.68-4.33,9.64-5.75,14.74c-0.38,1.36-0.06,2.67,1.31,3.41
			c1.21,0.65,2.26,0.04,3.17-0.7c1.11-0.9,1.66-1.91,0.83-3.43c-2.46-4.47-0.7-7.41,3.6-9.29
			C464.08,538.83,464.94,537.56,464.96,536.16z"/>
		<path class="st4" d="M341.72,560.46c-5.31-1.2-10.43-1.61-16.05-0.64c-5.72,0.99-10.09-5.29-8.43-11.21
			c1.69-6.06,4.01-11.96,6.4-17.79c1.35-3.31,4.34-4.96,7.9-5.23c4.23-0.32,8.4,0.63,12.71,0.17c3.65-0.39,4.71,2.45,3.57,5.82
			c-1.92,5.66-3.91,11.3-5.79,16.97c-0.45,1.36-1.49,3.14,0.01,4.13c1.69,1.12,3.08-0.5,4.25-1.61c1.97-1.87,2.9-4.41,4.05-6.8
			c1.2-2.49,3.05-4.2,5.93-2.89c2.89,1.31,2.03,3.75,1.19,6.02C354.34,555.85,348.76,560.48,341.72,560.46z M327.41,546.88
			c-0.34,2.08-0.46,3.35,0.82,3.94c1.27,0.59,2.3-0.27,2.98-1.21c2.68-3.73,3.77-8.08,4.62-12.49c0.23-1.21-0.21-2.49-1.4-2.94
			c-1.56-0.59-2.6,0.58-3.09,1.82C329.84,539.87,328.51,543.8,327.41,546.88z"/>
		<path class="st4" d="M60.01,533.49c1.82,0,3.63,0,5.45,0c1.76,0,3.46,0.24,3.69,2.4c0.25,2.31-1.06,4.16-3.18,4.32
			c-4.76,0.35-9.56,0.25-14.34,0.17c-1.54-0.03-2.29-1.3-2.24-2.77c0.07-2.05,1.22-3.6,3.21-3.84c2.44-0.3,4.94-0.07,7.41-0.07
			C60.01,533.62,60.01,533.56,60.01,533.49z"/>
		<path class="st4" d="M541.4,533.52c1.82,0,3.63,0.02,5.45,0c1.77-0.02,3.48,0.23,3.73,2.35c0.27,2.29-1.06,4.18-3.15,4.35
			c-4.75,0.37-9.55,0.26-14.33,0.17c-1.53-0.03-2.29-1.27-2.26-2.75c0.04-2.07,1.2-3.61,3.16-3.86c2.43-0.31,4.94-0.07,7.41-0.07
			C541.4,533.64,541.4,533.58,541.4,533.52z"/>
		<path class="st4" d="M234.84,510.6c3.56-0.02,5.37,1.67,5.42,4.83c0.05,3.07-1.53,5.06-4.83,5.13c-3.25,0.07-5.03-1.78-5.15-4.85
			C230.17,512.58,231.93,510.79,234.84,510.6z"/>
		<path class="st4" d="M192.84,510.57c3.38,0.23,5.11,1.93,5.03,5.12c-0.08,3.16-1.86,4.92-5.07,4.85c-3.23-0.07-4.93-2.04-4.9-5.09
			C187.92,512.32,189.86,510.69,192.84,510.57z"/>
	</g>
	<path class="st2" d="M230.18,194.79c1.41-6.21,3.92-8.55,10.22-8.62c12.79-0.14,25.59-0.18,38.38,0.01
		c6.9,0.1,10.2,3.26,10.05,10.23c-0.11,4.98,2.7,4.32,5.69,4.25c2.82-0.07,5.86,1,5.78-4.1c-0.12-7.12,3.37-10.31,10.47-10.39
		c12.46-0.14,24.92-0.12,37.38-0.01c7.28,0.07,9.64,2.27,10.94,9.51c-2.65,1.03-5.4,1.38-8.23,1.24c-0.08-3.22-2.38-2.97-4.58-2.97
		c-9.26,0.02-18.52,0.01-27.78,0c-10.32,0-10.32,0-9.9,10.33c-9.44,2.99-18.73,1.32-28-0.91c0.03-1.15-0.06-2.33,0.12-3.46
		c0.75-4.82-1.27-6.23-6.04-6.07c-10.56,0.34-21.15,0.1-31.72,0.12c-1.92,0-4.17-0.53-4.55,2.42
		C235.6,196.13,232.8,195.91,230.18,194.79z"/>
	<g>
		<path class="st2" d="M385.63,446.14c0-8.82-0.04-17.65,0.02-26.47c0.03-5.25,1.91-7.45,6.02-7.27c4.78,0.21,5.41,3.43,5.4,7.31
			c-0.05,17.15,0.03,34.3-0.05,51.44c-0.02,4.51,1.57,7.83,5.93,9.33c4.8,1.66,9.64-1.69,10.16-7.33c0.43-4.62,0.21-9.31,0.22-13.97
			c0.02-13.32,0.05-26.64-0.02-39.96c-0.02-3.79,0.9-6.69,5.34-6.82c4.59-0.13,6.07,2.69,6.07,6.74
			c0.01,17.48,0.04,34.96-0.02,52.44c-0.01,3.88,1.38,6.76,4.91,8.52c2.88,1.43,5.56,0.77,7.99-0.96c2.73-1.93,3.19-4.84,3.18-7.98
			c-0.04-16.98-0.01-33.96-0.03-50.94c0-2.73,0.04-5.43,2.67-7.1c4.31-2.73,8.78,0.26,8.83,6.05c0.1,11.99,0.03,23.97,0.03,35.96
			c0,5.83,0.18,11.66-0.04,17.48c-0.61,16.24-16.68,24.76-30.46,16.12c-2.14-1.34-3.46-1.42-5.67-0.06
			c-14.18,8.75-30,0.12-30.42-16.57c-0.22-8.65-0.04-17.31-0.04-25.97C385.65,446.14,385.64,446.14,385.63,446.14z"/>
		<path class="st2" d="M317.27,458.18c0-8.12-0.01-15.38,0-22.64c0.01-5.83-0.09-11.66,0.09-17.48c0.11-3.38,1.74-5.71,5.55-5.68
			c3.98,0.03,5.65,2.28,5.74,6.01c0.04,1.33,0.01,2.66,0.01,4c0,20.48-0.01,40.96,0.01,61.44c0,3.41,0.15,6.96-4.13,8.01
			c-4.31,1.07-6.24-1.62-7.85-5.13c-5.48-11.95-11.13-23.83-16.75-35.71c-0.69-1.45-0.98-3.16-2.64-4.32
			c-1.63,1.25-0.93,3.02-0.93,4.49c-0.06,11.32-0.05,22.64-0.03,33.96c0.01,2.84-0.5,5.39-3.47,6.56c-4.02,1.59-7.79-0.93-7.81-5.62
			c-0.12-22.64-0.07-45.29-0.03-67.93c0.01-2.96,1.3-5.16,4.48-5.7c3.51-0.59,5.62,1.11,7.05,4.2
			c5.58,12.09,11.21,24.16,16.89,36.21C314.19,454.44,314.53,456.34,317.27,458.18z"/>
		<path class="st2" d="M157.57,451.84c0-10.49-0.02-20.98,0.01-31.46c0.02-6.65,1.33-7.98,7.79-8.01c4.33-0.02,8.66,0.01,12.99,0
			c9.69-0.04,16.63,4.59,20.62,13.13c3.96,8.47,2.65,16.7-3.54,23.71c-2.27,2.57-2.41,4.22-0.81,7.28
			c3.78,7.24,3.11,15.56,4.68,23.36c0.39,1.95,0.64,3.95,0.77,5.94c0.2,3.27-1.23,5.55-4.57,6.09c-3.49,0.57-5.98-0.92-6.58-4.49
			c-1.07-6.4-1.96-12.83-2.8-19.27c-1.14-8.7-3.72-10.91-12.22-10.98c-3.64-0.03-5.02,1.04-4.9,4.83
			c0.25,7.65,0.09,15.31,0.05,22.97c-0.02,2.96-0.57,5.74-3.87,6.82c-4.3,1.4-7.53-1.26-7.58-6.46
			C157.51,474.15,157.57,463,157.57,451.84z M169.07,434.39c0,2.83,0.02,5.66-0.01,8.49c-0.01,1.66,0.36,3.11,2.32,3.19
			c4.15,0.19,8.34,0.57,12.23-1.49c4.98-2.63,7.17-8.28,5.29-13.65c-2.01-5.76-8.51-8.96-16.79-7.46c-5.98,1.09-1.9,6.28-3.03,9.41
			C168.92,433.35,169.06,433.9,169.07,434.39z"/>
		<path class="st2" d="M126.43,412.37c5.99,0,10.96,3.41,12.07,9.16c4.1,21.24,7.95,42.53,11.86,63.81c0.61,3.3-0.85,5.68-4.01,6.44
			c-3.61,0.87-6.28-0.63-7.08-4.43c-1.07-5.05-2.14-10.11-2.81-15.21c-0.42-3.24-1.98-3.99-4.96-4.06
			c-14.18-0.35-14.18-0.42-16.69,13.35c-0.27,1.47-0.55,2.94-0.86,4.41c-1.05,5.01-3.43,7.06-7.33,5.99
			c-4.15-1.13-4.51-4.23-3.82-7.91c2.41-12.76,4.71-25.53,7.06-38.3c1.45-7.86,2.77-15.74,4.43-23.55
			C115.61,415.84,120.22,412.38,126.43,412.37z M126.43,457.13c7.21,0,7.22,0,5.89-7.21c-1.32-7.18-2.64-14.35-3.99-21.52
			c-0.24-1.26-0.2-2.92-2.09-2.76c-1.52,0.12-1.43,1.6-1.63,2.71c-1.36,7.34-2.71,14.67-4.05,22.01
			C119.32,457.13,119.33,457.13,126.43,457.13z"/>
		<path class="st2" d="M339.56,451.79c0-10.65-0.02-21.31,0.01-31.96c0.01-6.33,1.18-7.45,7.66-7.46
			c7.99-0.02,15.98,0.07,23.97-0.03c3.81-0.05,6.31,1.57,6.34,5.38c0.03,3.72-2.31,5.68-6.15,5.66c-4.99-0.03-10,0.24-14.98-0.08
			c-4.25-0.27-6.16,0.9-5.73,5.49c0.37,3.96,0.3,8,0.01,11.97c-0.3,4.06,1,5.86,5.28,5.48c3.3-0.29,6.65-0.03,9.98-0.06
			c3.79-0.04,6.17,1.64,6.1,5.58c-0.08,3.92-2.56,5.48-6.3,5.44c-3.83-0.04-7.66,0.05-11.49-0.01c-2.53-0.04-3.58,1.06-3.53,3.61
			c0.09,5.49,0.12,10.99-0.01,16.48c-0.07,2.91,1.27,3.77,3.94,3.73c5.49-0.09,10.99,0.03,16.48-0.04c3.78-0.05,6.32,1.64,6.4,5.41
			c0.08,4.1-2.58,5.71-6.59,5.65c-7.99-0.11-15.98-0.01-23.97-0.04c-6.14-0.02-7.38-1.22-7.4-7.25
			C339.54,473.76,339.56,462.78,339.56,451.79z"/>
		<path class="st2" d="M482.08,412.37c10.03,0.02,18.34,7.29,19.13,16.72c0.3,3.56-0.68,6.47-4.59,7.08
			c-3.71,0.58-6.13-1.14-6.57-5.05c-0.48-4.19-2.87-6.66-6.89-7.48c-3.29-0.67-5.91,0.78-7.8,3.36c-2.35,3.21-1.85,6.59-0.03,9.87
			c2.48,4.47,6.36,7.66,10.15,10.91c4.83,4.13,9.54,8.35,12.83,13.87c5.84,9.81,3.41,21.31-5.69,27.32
			c-8.72,5.76-20.5,3.56-26.68-4.97c-2.12-2.93-3.21-6.22-3.35-9.78c-0.13-3.24,1.37-5.56,4.71-6.01c3.4-0.46,6.02,0.82,6.46,4.56
			c0.52,4.35,2.72,7.14,7,7.97c3.47,0.67,6.25-0.85,8.07-3.77c2.34-3.76,1.27-7.4-1.02-10.75c-3.52-5.15-8.52-8.85-13.09-12.98
			c-4.6-4.16-8.86-8.59-11.03-14.59C458.89,425.44,468.08,412.34,482.08,412.37z"/>
		<path class="st2" d="M224.03,456.15c0-9.49-0.1-18.98,0.05-28.47c0.05-3.23-1.01-4.59-4.3-4.35c-2.48,0.18-5,0.12-7.49,0
			c-3.63-0.18-5.49-2.28-5.36-5.83c0.12-3.36,2.08-5.12,5.49-5.13c11.49-0.01,22.97,0,34.46-0.01c3.67,0,5.7,1.95,5.65,5.5
			c-0.04,3.55-2.18,5.42-5.77,5.49c-0.33,0.01-0.67,0-1,0.01c-10.26,0.27-10.26,0.27-10.26,10.78c0,16.65,0.01,33.29-0.01,49.94
			c-0.01,5.62-1.86,8.12-5.94,7.86c-5-0.31-5.55-3.89-5.54-7.84C224.05,474.8,224.03,465.47,224.03,456.15z"/>
	</g>
</g>
</svg>
